<?xml version="1.0" encoding="utf-8"?>
<!-- Uploaded to: SVG Repo, www.svgrepo.com, Generator: SVG Repo Mixer Tools -->
<svg width="800px" height="800px" viewBox="0 -18.5 64 64" xmlns="http://www.w3.org/2000/svg">
  <g id="Group_569" data-name="Group 569" transform="translate(-388 -204.409)">
    <g id="Group_65" data-name="Group 65">
      <g id="Group_59" data-name="Group 59">
        <path id="Path_124" data-name="Path 124" d="M431.458,213.367,426,207.156a5,5,0,0,0-3.8-1.747H419a2,2,0,0,0-2,2v6" fill="#29abe2"/>
        <path id="Path_125" data-name="Path 125" d="M417,214.409a1,1,0,0,1-1-1v-6a3,3,0,0,1,3-3h3.2a6,6,0,0,1,4.559,2.1l5.452,6.2a1,1,0,0,1-1.5,1.32l-5.46-6.211a4.008,4.008,0,0,0-3.049-1.407H419a1,1,0,0,0-1,1v6A1,1,0,0,1,417,214.409Z"/>
      </g>
      <g id="Group_60" data-name="Group 60">
        <path id="Path_126" data-name="Path 126" d="M402,223.409a5,5,0,0,1-5-5v-5h43.219A4.781,4.781,0,0,1,445,218.19v.438a4.782,4.782,0,0,1-4.781,4.781H402Z" fill="#29abe2"/>
        <path id="Path_127" data-name="Path 127" d="M440.219,224.409H402a6.007,6.007,0,0,1-6-6v-5a1,1,0,0,1,1-1h43.219A5.788,5.788,0,0,1,446,218.19v.437A5.789,5.789,0,0,1,440.219,224.409Zm-42.219-10v4a4,4,0,0,0,4,4h38.219A3.786,3.786,0,0,0,444,218.627v-.437a3.785,3.785,0,0,0-3.781-3.781Z"/>
      </g>
      <g id="Group_61" data-name="Group 61">
        <circle id="Ellipse_20" data-name="Ellipse 20" cx="3.975" cy="3.975" r="3.975" transform="translate(430.53 220.459)" fill="#29abe2"/>
        <path id="Path_128" data-name="Path 128" d="M434.505,220.459a3.975,3.975,0,1,1-3.975,3.975,3.975,3.975,0,0,1,3.975-3.975m0-2a5.975,5.975,0,1,0,5.974,5.975,5.982,5.982,0,0,0-5.974-5.975Z"/>
      </g>
      <g id="Group_62" data-name="Group 62">
        <circle id="Ellipse_21" data-name="Ellipse 21" cx="3.975" cy="3.975" r="3.975" transform="translate(402.53 220.459)" fill="#29abe2"/>
        <path id="Path_129" data-name="Path 129" d="M406.505,220.459a3.975,3.975,0,1,1-3.975,3.975,3.975,3.975,0,0,1,3.975-3.975m0-2a5.975,5.975,0,1,0,5.974,5.975,5.982,5.982,0,0,0-5.974-5.975Z"/>
      </g>
      <g id="Group_63" data-name="Group 63">
        <line id="Line_64" data-name="Line 64" x1="3" transform="translate(420 217.409)" fill="#29abe2"/>
        <path id="Path_130" data-name="Path 130" d="M423,218.409h-3a1,1,0,0,1,0-2h3a1,1,0,0,1,0,2Z"/>
      </g>
      <g id="Group_64" data-name="Group 64">
        <line id="Line_65" data-name="Line 65" x1="62" transform="translate(389 230.409)" fill="#29abe2"/>
        <path id="Path_131" data-name="Path 131" d="M451,231.409H389a1,1,0,0,1,0-2h62a1,1,0,0,1,0,2Z"/>
      </g>
    </g>
  </g>
</svg>